<svg id="Calque_15" data-name="Calque 15" xmlns="http://www.w3.org/2000/svg" xmlns:xlink="http://www.w3.org/1999/xlink" viewBox="0 0 172.46 283.34"><defs><style>.cls-1{fill:url(#Nouvelle_nuance_de_dégradé_1);}.cls-2{fill:url(#Nouvelle_nuance_de_dégradé_1-2);}.cls-3{fill:url(#Nouvelle_nuance_de_dégradé_1-3);}.cls-4{fill:url(#Nouvelle_nuance_de_dégradé_1-4);}</style><linearGradient id="Nouvelle_nuance_de_dégradé_1" x1="339.4" y1="310.53" x2="174.3" y2="587.52" gradientUnits="userSpaceOnUse"><stop offset="0" stop-color="#cee3e8"/><stop offset="0.07" stop-color="#bfdee3"/><stop offset="0.19" stop-color="#97d2d6"/><stop offset="0.28" stop-color="#79c8cc"/><stop offset="0.44" stop-color="#66c5d7"/><stop offset="0.7" stop-color="#41c0ed"/><stop offset="1" stop-color="#a7bbe2"/></linearGradient><linearGradient id="Nouvelle_nuance_de_dégradé_1-2" x1="341.65" y1="311.87" x2="176.55" y2="588.86" xlink:href="#Nouvelle_nuance_de_dégradé_1"/><linearGradient id="Nouvelle_nuance_de_dégradé_1-3" x1="362.65" y1="324.38" x2="197.55" y2="601.38" xlink:href="#Nouvelle_nuance_de_dégradé_1"/><linearGradient id="Nouvelle_nuance_de_dégradé_1-4" x1="424.04" y1="360.98" x2="258.94" y2="637.97" xlink:href="#Nouvelle_nuance_de_dégradé_1"/></defs><path class="cls-1" d="M322,350.09a6.88,6.88,0,1,0-5.82,7.79A6.87,6.87,0,0,0,322,350.09Zm-6.94,6.44a5.52,5.52,0,1,1,5.52-5.52A5.52,5.52,0,0,1,315.1,356.53Z" transform="translate(-231.89 -344.19)"/><path class="cls-2" d="M305.66,368.73a3.52,3.52,0,1,0,3.52,3.52A3.51,3.51,0,0,0,305.66,368.73Zm.16,6.2a2.72,2.72,0,1,1,2.72-2.72A2.72,2.72,0,0,1,305.82,374.93Z" transform="translate(-231.89 -344.19)"/><path class="cls-3" d="M332.91,369.17a5.1,5.1,0,1,0,5.1,5.1A5.1,5.1,0,0,0,332.91,369.17Zm-2.07,9.09a4.35,4.35,0,1,1,5.85-1.93A4.35,4.35,0,0,1,330.84,378.26Z" transform="translate(-231.89 -344.19)"/><path class="cls-4" d="M345.86,460.45l.46-61,9.72-8.81H280.19l9.72,8.81.46,61L231.89,582.63v23.09l11.84,16.1,10.33,5.71H382.17l10.33-5.71,11.84-16.1V582.63Zm51.91,144.31-7.88,11.69-11.08,5.81-123.52,1.15-7.91-4.13-11.12-14.52,1-21.56,58.5-123,.29-61.67L289.92,394l27.28.05H319l27.29-.05-6.14,4.63.3,61.67,57.75,123.18Z" transform="translate(-231.89 -344.19)"/></svg>