<svg xmlns="http://www.w3.org/2000/svg" xmlns:xlink="http://www.w3.org/1999/xlink" viewBox="0 0 763.74 1186.93"><defs><style>.cls-1{fill:url(#Dégradé_sans_nom_114);}.cls-2{fill:url(#Dégradé_sans_nom_114-2);}.cls-3{fill:url(#Dégradé_sans_nom_114-3);}.cls-4{fill:url(#Dégradé_sans_nom_114-4);}.cls-5{fill:url(#Dégradé_sans_nom_114-5);}.cls-6{fill:url(#Dégradé_sans_nom_114-6);}.cls-7{fill:url(#Dégradé_sans_nom_114-7);}.cls-8{fill:url(#Dégradé_sans_nom_114-8);}.cls-9{fill:url(#Dégradé_sans_nom_114-9);}.cls-10{fill:url(#Dégradé_sans_nom_114-10);}</style><linearGradient id="Dégradé_sans_nom_114" x1="662.55" y1="-84.33" x2="-165.68" y2="1091.98" gradientUnits="userSpaceOnUse"><stop offset="0" stop-color="#fff"/><stop offset="0" stop-color="#f9fafd"/><stop offset="0" stop-color="#f7f8fd"/><stop offset="0.05" stop-color="#f0f5fa"/><stop offset="0.11" stop-color="#ddeef3"/><stop offset="0.19" stop-color="#bee2e7"/><stop offset="0.28" stop-color="#93d2d6"/><stop offset="0.37" stop-color="#61bfc3"/><stop offset="0.76" stop-color="#50b7e9"/><stop offset="0.87" stop-color="#65b1e3"/><stop offset="1" stop-color="#86a9d9"/></linearGradient><linearGradient id="Dégradé_sans_nom_114-2" x1="591.26" y1="-134.52" x2="-236.97" y2="1041.79" xlink:href="#Dégradé_sans_nom_114"/><linearGradient id="Dégradé_sans_nom_114-3" x1="849.35" y1="47.2" x2="21.12" y2="1223.51" xlink:href="#Dégradé_sans_nom_114"/><linearGradient id="Dégradé_sans_nom_114-4" x1="743.13" y1="-27.59" x2="-85.1" y2="1148.71" xlink:href="#Dégradé_sans_nom_114"/><linearGradient id="Dégradé_sans_nom_114-5" x1="1119.69" y1="237.54" x2="291.46" y2="1413.85" xlink:href="#Dégradé_sans_nom_114"/><linearGradient id="Dégradé_sans_nom_114-6" x1="1013.48" y1="162.76" x2="185.25" y2="1339.07" xlink:href="#Dégradé_sans_nom_114"/><linearGradient id="Dégradé_sans_nom_114-7" x1="909.15" y1="89.3" x2="80.92" y2="1265.61" xlink:href="#Dégradé_sans_nom_114"/><linearGradient id="Dégradé_sans_nom_114-8" x1="812.72" y1="21.41" x2="-15.51" y2="1197.71" xlink:href="#Dégradé_sans_nom_114"/><linearGradient id="Dégradé_sans_nom_114-9" x1="647.48" y1="-94.94" x2="-180.75" y2="1081.37" xlink:href="#Dégradé_sans_nom_114"/><linearGradient id="Dégradé_sans_nom_114-10" x1="550.88" y1="-162.95" x2="-277.35" y2="1013.36" xlink:href="#Dégradé_sans_nom_114"/></defs><g id="Calque_2" data-name="Calque 2"><polygon class="cls-1" points="47.05 406.08 314.52 570.29 357.16 733.16 83.5 565.16 47.05 406.08"/><polygon class="cls-2" points="90.28 254.93 316.33 388.48 354.3 524.1 123.03 387.46 90.28 254.93"/><polygon class="cls-3" points="361.54 1186.93 47.63 1004.48 0 806.61 321.16 993.27 361.54 1186.93"/><polygon class="cls-4" points="10.05 589.79 306.65 767.75 355.47 946.75 52.01 764.68 10.05 589.79"/><polygon class="cls-5" points="763.74 806.61 449.84 989.05 402.21 1186.93 723.37 1000.26 763.74 806.61"/><polygon class="cls-6" points="416.39 946.77 713 768.82 761.82 589.81 458.36 771.88 416.39 946.77"/><polygon class="cls-7" points="417.35 733.61 684.82 569.4 727.46 406.53 453.8 574.53 417.35 733.61"/><polygon class="cls-8" points="422.28 525.2 648.32 391.64 686.3 256.02 455.02 392.66 422.28 525.2"/><polygon class="cls-9" points="496.6 0 504.85 262.42 410.65 367.12 402.21 98.63 496.6 0"/><polygon class="cls-10" points="252.28 3.07 260.54 265.49 361.54 364.05 353.09 95.56 252.28 3.07"/><polygon points="73.76 441.06 298.17 579.13 328.48 695.58 98.88 554.32 73.76 441.06"/><polygon points="120.12 289.11 292.13 390.98 318.22 486.01 142.23 381.79 120.12 289.11"/><polygon points="339.23 1140.34 69.68 983.37 22.25 843.73 298.03 1004.33 339.23 1140.34"/><polygon points="40.28 629.65 282.9 775.52 324.23 901.45 76 752.21 40.28 629.65"/><polygon points="738.39 843.21 475.66 996.24 426.91 1146.96 695.71 990.39 738.39 843.21"/><polygon points="434.8 917.26 684.36 767.19 729.89 623.65 474.57 777.19 434.8 917.26"/><polygon points="436.13 705.73 665.81 564.41 709.55 435.83 474.56 580.41 436.13 705.73"/><polygon points="444.19 491.9 638.25 377.02 660.7 285.49 462.15 403.04 444.19 491.9"/><polygon points="478.99 38.75 485.41 243.39 426.52 324.58 419.95 115.21 478.99 38.75"/><polygon points="270.51 39.55 276.98 245.64 344.66 323.39 338.04 112.55 270.51 39.55"/></g></svg>