<svg id="Owl2" xmlns="http://www.w3.org/2000/svg" xmlns:xlink="http://www.w3.org/1999/xlink" viewBox="0 0 255.17 235.83"><defs><style>.cls-1{fill:url(#Nouvelle_nuance_de_dégradé_1);}.cls-2{fill:url(#Nouvelle_nuance_de_dégradé_1-2);}.cls-3,.cls-4,.cls-5,.cls-6,.cls-7{fill:none;stroke-miterlimit:10;}.cls-3{stroke:url(#Nouvelle_nuance_de_dégradé_1-3);}.cls-4{stroke:url(#Nouvelle_nuance_de_dégradé_1-4);}.cls-5{stroke:url(#Nouvelle_nuance_de_dégradé_1-5);}.cls-6{stroke:url(#Nouvelle_nuance_de_dégradé_1-6);}.cls-7{stroke:url(#Nouvelle_nuance_de_dégradé_1-7);}.cls-8{fill:url(#Nouvelle_nuance_de_dégradé_1-8);}.cls-9{fill:url(#Nouvelle_nuance_de_dégradé_1-9);}.cls-10{fill:url(#Nouvelle_nuance_de_dégradé_1-10);}.cls-11{fill:url(#Nouvelle_nuance_de_dégradé_1-11);}.cls-12{fill:url(#Nouvelle_nuance_de_dégradé_1-12);}.cls-13{fill:url(#Nouvelle_nuance_de_dégradé_1-13);}.cls-14{fill:url(#Nouvelle_nuance_de_dégradé_1-14);}.cls-15{fill:url(#Dégradé_sans_nom_11);}.cls-16{fill:url(#Dégradé_sans_nom_11-2);}.cls-17{fill:url(#Dégradé_sans_nom_11-3);}.cls-18{fill:url(#Nouvelle_nuance_de_dégradé_1-16);}</style><linearGradient id="Nouvelle_nuance_de_dégradé_1" x1="418.08" y1="135.25" x2="185.12" y2="373.72" gradientUnits="userSpaceOnUse"><stop offset="0" stop-color="#cee3e8"/><stop offset="0.07" stop-color="#bfdee3"/><stop offset="0.19" stop-color="#97d2d6"/><stop offset="0.28" stop-color="#79c8cc"/><stop offset="0.44" stop-color="#66c5d7"/><stop offset="0.7" stop-color="#41c0ed"/><stop offset="1" stop-color="#a7bbe2"/></linearGradient><linearGradient id="Nouvelle_nuance_de_dégradé_1-2" x1="425" y1="142" x2="192.03" y2="380.48" xlink:href="#Nouvelle_nuance_de_dégradé_1"/><linearGradient id="Nouvelle_nuance_de_dégradé_1-3" x1="48.62" y1="19.6" x2="48.3" y2="20.5" xlink:href="#Nouvelle_nuance_de_dégradé_1"/><linearGradient id="Nouvelle_nuance_de_dégradé_1-4" x1="320.2" y1="221.85" x2="320.2" y2="221.85" xlink:href="#Nouvelle_nuance_de_dégradé_1"/><linearGradient id="Nouvelle_nuance_de_dégradé_1-5" x1="348.63" y1="231.63" x2="348.63" y2="231.63" xlink:href="#Nouvelle_nuance_de_dégradé_1"/><linearGradient id="Nouvelle_nuance_de_dégradé_1-6" x1="279.46" y1="317.85" x2="279.46" y2="317.85" xlink:href="#Nouvelle_nuance_de_dégradé_1"/><linearGradient id="Nouvelle_nuance_de_dégradé_1-7" x1="406.42" y1="179.9" x2="406.42" y2="179.9" xlink:href="#Nouvelle_nuance_de_dégradé_1"/><linearGradient id="Nouvelle_nuance_de_dégradé_1-8" x1="214.47" y1="-37.14" x2="-18.5" y2="201.33" xlink:href="#Nouvelle_nuance_de_dégradé_1"/><linearGradient id="Nouvelle_nuance_de_dégradé_1-9" x1="433.04" y1="149.86" x2="200.07" y2="388.33" xlink:href="#Nouvelle_nuance_de_dégradé_1"/><linearGradient id="Nouvelle_nuance_de_dégradé_1-10" x1="452.1" y1="168.48" x2="219.13" y2="406.96" xlink:href="#Nouvelle_nuance_de_dégradé_1"/><linearGradient id="Nouvelle_nuance_de_dégradé_1-11" x1="183.49" y1="-67.41" x2="-49.48" y2="171.06" xlink:href="#Nouvelle_nuance_de_dégradé_1"/><linearGradient id="Nouvelle_nuance_de_dégradé_1-12" x1="527.95" y1="242.59" x2="294.99" y2="481.06" xlink:href="#Nouvelle_nuance_de_dégradé_1"/><linearGradient id="Nouvelle_nuance_de_dégradé_1-13" x1="466.57" y1="163.88" x2="311.81" y2="607.29" gradientTransform="matrix(0.63, -0.44, -0.36, -0.52, 37.04, 450.09)" xlink:href="#Nouvelle_nuance_de_dégradé_1"/><linearGradient id="Nouvelle_nuance_de_dégradé_1-14" x1="463.45" y1="134.95" x2="280.7" y2="658.58" gradientTransform="matrix(0.63, -0.44, -0.36, -0.52, 37.04, 450.09)" xlink:href="#Nouvelle_nuance_de_dégradé_1"/><linearGradient id="Dégradé_sans_nom_11" x1="569.89" y1="283.56" x2="336.93" y2="522.03" xlink:href="#Nouvelle_nuance_de_dégradé_1"/><linearGradient id="Dégradé_sans_nom_11-2" x1="424.61" y1="416.75" x2="424.61" y2="416.75" xlink:href="#Nouvelle_nuance_de_dégradé_1"/><linearGradient id="Dégradé_sans_nom_11-3" x1="386.54" y1="413.08" x2="386.54" y2="413.08" xlink:href="#Nouvelle_nuance_de_dégradé_1"/><linearGradient id="Nouvelle_nuance_de_dégradé_1-16" x1="256.6" y1="4.01" x2="23.63" y2="242.49" xlink:href="#Nouvelle_nuance_de_dégradé_1"/></defs><path class="cls-1" d="M356,237.73c-.22.88-8.39-3.07-18.82,0-3.84,1.15-5.12,2.39-14.53,6.7-4.28,2-7.84,3.46-10.24,4.43a84.4,84.4,0,0,0-32.48-11.17,68.71,68.71,0,0,1,30.95-11.3C335.68,223.86,356.46,235.88,356,237.73Z" transform="translate(-258.56 -226.07)"/><path class="cls-2" d="M301.17,289.3l-27.64-17.95v8.3l19.85,13.1a458.33,458.33,0,0,1,1.41,1l0-.09,4.37,2.88Z" transform="translate(-258.56 -226.07)"/><line class="cls-3" x1="48.46" y1="20.05" x2="48.46" y2="20.05"/><path class="cls-4" d="M320.2,221.85" transform="translate(-258.56 -226.07)"/><path class="cls-5" d="M348.63,231.63" transform="translate(-258.56 -226.07)"/><path class="cls-6" d="M279.46,317.85" transform="translate(-258.56 -226.07)"/><path class="cls-7" d="M406.42,179.9" transform="translate(-258.56 -226.07)"/><polygon class="cls-8" points="24.57 95.58 63.55 145.66 17.23 201.61 13.1 214.91 19.52 224.08 22.28 204.13 63.55 161.02 72.26 145.43 72.26 131.9 42.68 107.43 24.57 95.58"/><path class="cls-9" d="M362,241c-6.77-5.6-19.73-6.48-29.12-3.21s-12.31,9.66-20.87,9.4c-6.34-.19-8-3.79-15.59-6.65-9.15-3.44-22.42-4.1-29.35.69-14.94,10.33-9.87,52.48,12.38,76.59,4.76,5.15,16.74,17.95,33.93,17.65,15.65-.27,26.31-11.24,31.88-17C368,295.21,377.15,253.56,362,241Zm-20,74.49c-5,5.22-14.5,15.22-28.48,15.47-15.36.27-26.06-11.4-30.31-16.1-19.88-22-24.41-60.41-11.07-69.83,6.2-4.36,18-3.76,26.23-.62,6.78,2.6,8.26,5.88,13.93,6.06,7.64.23,10.23-5.58,18.64-8.57s20-2.19,26,2.92C370.5,256.28,362.28,294.25,342,315.52Z" transform="translate(-258.56 -226.07)"/><path class="cls-10" d="M325,289.3l27.64-17.95v8.3l-19.86,13.1a1.87,1.87,0,0,0-.64.46,2,2,0,0,0-.77.54l0-.09L327,296.54Z" transform="translate(-258.56 -226.07)"/><polygon class="cls-11" points="50.02 22.22 58.43 22.22 59.4 106.6 54.71 106.6 50.02 22.22"/><path class="cls-12" d="M404.89,363.4l11.92,5.5,78.88,9.79-11.31,13.14L374.31,372.57,341.9,350.25l4-13.91L378,299.81l5.5-26.6-47.69,64.51-1.55,8.69v4.23a2.43,2.43,0,0,1-1.12,2.05l-.39,2.15,36.71,26.6,119.52,18,24.77-25.07Z" transform="translate(-258.56 -226.07)"/><polygon class="cls-13" points="216.53 119.88 206.25 107.89 140.12 92.46 134.75 87.57 216.8 108.35 223.18 118.48 216.53 119.88"/><polygon class="cls-14" points="234.79 144.24 223.33 130.74 156.38 112.49 150.57 106.98 233.84 131.44 241.24 142.81 234.79 144.24"/><polygon class="cls-13" points="216.53 119.88 206.25 107.89 140.12 92.46 134.75 87.57 216.8 108.35 223.18 118.48 216.53 119.88"/><path class="cls-15" d="M497.6,426.42l-26-26.68c-4.25,0-8.5-.12-12.75-.26l26.44,26.2L469,432.83l-11.83.74q-17-18.12-33.95-36.23l-7.64-.31,38.88,43.44,20.45.74.74,5.66-22.92,9.37-59.47-59.51-7.95-.46,64,65.64L486,445.64l-4.43-6.9Z" transform="translate(-258.56 -226.07)"/><path class="cls-16" d="M424.61,416.75" transform="translate(-258.56 -226.07)"/><path class="cls-17" d="M386.54,413.08" transform="translate(-258.56 -226.07)"/><polygon class="cls-18" points="96.34 153.8 50.02 209.75 45.89 223.05 52.31 232.22 55.07 212.28 96.34 169.17 105.05 153.57 105.05 140.05 96.34 153.8"/></svg>