<svg id="Calque_14" data-name="Calque 14" xmlns="http://www.w3.org/2000/svg" xmlns:xlink="http://www.w3.org/1999/xlink" viewBox="0 0 247.4 400.55"><defs><style>.cls-1{fill:url(#Nouvelle_nuance_de_dégradé_1);}.cls-2{fill:url(#Nouvelle_nuance_de_dégradé_1-2);}.cls-3{fill:url(#Nouvelle_nuance_de_dégradé_1-3);}.cls-4{fill:url(#Nouvelle_nuance_de_dégradé_1-4);}.cls-5{fill:url(#Nouvelle_nuance_de_dégradé_1-5);}.cls-6{fill:url(#Nouvelle_nuance_de_dégradé_1-6);}.cls-7{fill:url(#Nouvelle_nuance_de_dégradé_1-7);}</style><linearGradient id="Nouvelle_nuance_de_dégradé_1" x1="324.49" y1="46.21" x2="73.4" y2="439.69" gradientUnits="userSpaceOnUse"><stop offset="0" stop-color="#cee3e8"/><stop offset="0.07" stop-color="#bfdee3"/><stop offset="0.19" stop-color="#97d2d6"/><stop offset="0.28" stop-color="#79c8cc"/><stop offset="0.44" stop-color="#66c5d7"/><stop offset="0.7" stop-color="#41c0ed"/><stop offset="1" stop-color="#a7bbe2"/></linearGradient><linearGradient id="Nouvelle_nuance_de_dégradé_1-2" x1="266.71" y1="356.71" x2="266.71" y2="356.71" xlink:href="#Nouvelle_nuance_de_dégradé_1"/><linearGradient id="Nouvelle_nuance_de_dégradé_1-3" x1="220.24" y1="-20.31" x2="-30.84" y2="373.17" xlink:href="#Nouvelle_nuance_de_dégradé_1"/><linearGradient id="Nouvelle_nuance_de_dégradé_1-4" x1="351.13" y1="173.25" x2="100.05" y2="566.72" xlink:href="#Nouvelle_nuance_de_dégradé_1"/><linearGradient id="Nouvelle_nuance_de_dégradé_1-5" x1="429.45" y1="261.02" x2="429.45" y2="261.02" xlink:href="#Nouvelle_nuance_de_dégradé_1"/><linearGradient id="Nouvelle_nuance_de_dégradé_1-6" x1="517.09" y1="279.15" x2="266.01" y2="672.62" xlink:href="#Nouvelle_nuance_de_dégradé_1"/><linearGradient id="Nouvelle_nuance_de_dégradé_1-7" x1="251.66" y1="-0.26" x2="0.58" y2="393.22" xlink:href="#Nouvelle_nuance_de_dégradé_1"/></defs><polygon class="cls-1" points="233.68 360.87 124.11 214.89 13.72 360.87 233.68 360.87"/><path class="cls-2" d="M266.71,356.71" transform="translate(-182.45 -226.45)"/><polyline class="cls-3" points="161.77 130.26 124.22 185.29 86.56 130.26 156.72 130.26"/><path class="cls-4" d="M182.45,226.45V261h247.4V226.45Zm243.4,30.06H186.23v-25H425.85Z" transform="translate(-182.45 -226.45)"/><path class="cls-5" d="M429.45,261" transform="translate(-182.45 -226.45)"/><path class="cls-6" d="M182.45,592.43V627h247.4V592.43Zm243.4,30.05H186.23v-25H425.85Z" transform="translate(-182.45 -226.45)"/><polygon class="cls-7" points="0 34.57 243.4 365.98 247.4 365.98 2.63 34.57 0 34.57"/><polyline class="cls-7" points="247.4 34.57 3.78 366.15 0 365.98 243.4 34.57 247 34.57"/></svg>